<svg width="710" height="1038" viewBox="0 0 710 1038" fill="none" xmlns="http://www.w3.org/2000/svg">
<g clip-path="url(#clip0_112_87)">
<rect width="710" height="1038" fill="#FDB400"/>
<path fill-rule="evenodd" clip-rule="evenodd" d="M428.678 411.59C496.952 405.013 573.517 398.55 623.731 445.242C674.863 492.786 676.503 570.398 674.497 640.164C672.564 707.388 657.865 774.22 612.833 824.196C565.423 876.812 499.522 911.931 428.678 912.976C356.898 914.035 289.868 880.336 239.005 829.71C188.033 778.976 148.672 711.814 154.59 640.164C160.196 572.284 215.596 523.159 267.926 479.52C314.361 440.796 368.478 417.39 428.678 411.59Z" fill="white" fill-opacity="0.3"/>
<path fill-rule="evenodd" clip-rule="evenodd" d="M104.187 754.703C80.1627 690.458 54.1035 618.175 86.208 557.586C118.899 495.892 193.441 474.22 261.349 458.101C326.783 442.569 395.142 439.47 455.07 470.033C518.164 502.209 569.143 556.776 588.488 624.935C608.089 693.995 592.887 767.463 557.151 829.696C521.337 892.062 466.651 947.464 395.911 960.293C328.893 972.447 267.104 931.648 211.407 892.396C161.984 857.566 125.37 811.351 104.187 754.703Z" fill="white" fill-opacity="0.3"/>
<circle cx="66.0644" cy="66.0644" r="66.0644" transform="matrix(-1 0 0 1 563.04 528.227)" fill="#8562E2"/>
<circle cx="6.79167" cy="6.79167" r="6.79167" transform="matrix(-1 0 0 1 461.782 572.682)" fill="#0C0C43"/>
<circle cx="77.7955" cy="77.7955" r="77.7955" transform="matrix(-1 0 0 1 575.388 670.235)" fill="#412A7D"/>
<rect width="155.591" height="86.4394" transform="matrix(-1 0 0 1 575.424 743.091)" fill="#412A7D"/>
<path fill-rule="evenodd" clip-rule="evenodd" d="M545.709 512.867C559.658 516.551 572.656 531.721 577.609 552.021C578.658 556.321 579.281 560.583 579.51 564.722C584.579 572.946 587.84 583.612 588.282 595.358C589.291 622.204 575.192 644.527 556.791 645.219C541.526 645.792 528.095 631.297 523.385 611.012C511.517 606.668 499.982 595.185 493.238 579.396C491.946 576.37 490.889 573.327 490.061 570.302C469.146 565.384 454.373 553.375 454.373 539.341C454.373 520.927 479.805 506 511.176 506C524.167 506 536.139 508.56 545.709 512.867Z" fill="#412A7D"/>
<circle cx="208.021" cy="596.761" r="66.0644" fill="#FFF7E4"/>
<circle cx="250.006" cy="581.943" r="6.79167" fill="#0C0C43"/>
<circle cx="207.403" cy="750.5" r="77.7955" fill="#7B4C15"/>
<rect x="129.644" y="745.561" width="155.591" height="86.4394" fill="#7B4C15"/>
<rect x="127.58" y="543.92" width="23.5089" height="12.3485" transform="rotate(32.1963 127.58 543.92)" fill="#0E0E44"/>
<rect x="141.706" y="517.78" width="30.7515" height="12.3485" transform="rotate(49.513 141.706 517.78)" fill="#0E0E44"/>
<rect x="170.428" y="508.47" width="23.5089" height="11.9244" transform="rotate(69.6967 170.428 508.47)" fill="#0E0E44"/>
<path d="M728.956 662.087C738.348 671.478 738.348 686.609 728.956 696L694.696 662.087C704.261 652.696 719.565 652.696 728.956 662.087Z" fill="#FEDA82"/>
<path d="M667.043 677.913C657.652 668.522 657.652 653.391 667.043 644L701.304 677.913C691.913 687.304 676.435 687.304 667.043 677.913Z" stroke="#FEDA82" stroke-width="1.7707" stroke-miterlimit="10"/>
<path d="M726 220.298C722.064 223.474 718.306 223.027 715.533 222.713C713.073 222.445 711.91 222.356 710.345 223.608C708.779 224.861 708.6 226.023 708.332 228.484C708.019 231.212 707.616 234.969 703.68 238.145C699.744 241.321 695.986 240.874 693.213 240.561C690.753 240.292 689.59 240.203 688.024 241.455C686.459 242.708 686.28 243.871 686.011 246.331C685.698 249.059 685.296 252.817 681.359 255.993C677.423 259.168 673.666 258.721 670.893 258.408C668.432 258.14 667.27 258.05 665.704 259.303L661.231 253.711C665.167 250.536 668.925 250.983 671.698 251.296C674.158 251.564 675.321 251.654 676.886 250.401C678.452 249.149 678.631 247.986 678.899 245.526C679.212 242.797 679.615 239.04 683.551 235.864C687.487 232.688 691.245 233.136 694.018 233.449C696.478 233.717 697.641 233.807 699.207 232.554C700.772 231.302 700.951 230.139 701.22 227.678C701.533 224.95 701.935 221.193 705.872 218.017C709.808 214.841 713.565 215.288 716.338 215.601C718.799 215.87 719.961 215.959 721.527 214.707L726 220.298Z" fill="#FEDA82"/>
<path d="M715.769 205.591C711.833 208.767 708.076 208.32 705.302 208.007C702.842 207.738 701.679 207.649 700.114 208.901C698.548 210.154 698.369 211.317 698.101 213.777C697.788 216.505 697.385 220.263 693.449 223.439C689.513 226.614 685.755 226.167 682.982 225.854C680.522 225.586 679.359 225.496 677.793 226.749C676.228 228.001 676.049 229.164 675.78 231.624C675.467 234.353 675.065 238.11 671.129 241.286C667.192 244.462 663.435 244.014 660.662 243.701C658.202 243.433 657.039 243.343 655.473 244.596L651 239.005C654.936 235.829 658.694 236.276 661.467 236.589C663.927 236.858 665.09 236.947 666.656 235.695C668.221 234.442 668.4 233.279 668.668 230.819C668.981 228.09 669.384 224.333 673.32 221.157C677.257 217.981 681.014 218.429 683.787 218.742C686.247 219.01 687.41 219.1 688.976 217.847C690.541 216.595 690.72 215.432 690.989 212.972C691.302 210.243 691.704 206.486 695.641 203.31C699.577 200.134 703.334 200.581 706.107 200.895C708.568 201.163 709.731 201.252 711.296 200L715.769 205.591Z" fill="#FEDA82"/>
</g>
<rect y="828" width="710" height="210" fill="#0C0C43"/>
<path d="M187.956 276.087C197.348 285.478 197.348 300.609 187.956 310L153.696 276.087C163.261 266.696 178.565 266.696 187.956 276.087Z" fill="#FEDA82"/>
<path d="M126.043 291.913C116.652 282.522 116.652 267.391 126.043 258L160.304 291.913C150.913 301.304 135.435 301.304 126.043 291.913Z" stroke="#FEDA82" stroke-width="1.7707" stroke-miterlimit="10"/>
<path d="M476 379.521C486.028 369.493 502.451 369.493 512.479 379.521C522.507 389.549 522.507 405.972 512.479 416" stroke="#FEDA82" stroke-width="8" stroke-miterlimit="10" stroke-linecap="round" stroke-linejoin="round"/>
<path d="M53.653 798.942C41.3711 791.851 37.1206 775.988 44.2115 763.706C51.3024 751.424 67.1656 747.174 79.4475 754.265" stroke="#FEDA82" stroke-width="8" stroke-miterlimit="10" stroke-linecap="round" stroke-linejoin="round"/>
<defs>
<clipPath id="clip0_112_87">
<rect width="710" height="1038" fill="white"/>
</clipPath>
</defs>
</svg>
